<?xml version="1.0" encoding="UTF-8" standalone="no"?>
<!-- Created with Inkscape (http://www.inkscape.org/) -->

<svg
   xmlns:dc="http://purl.org/dc/elements/1.1/"
   xmlns:cc="http://creativecommons.org/ns#"
   xmlns:rdf="http://www.w3.org/1999/02/22-rdf-syntax-ns#"
   xmlns:svg="http://www.w3.org/2000/svg"
   xmlns="http://www.w3.org/2000/svg"
   xmlns:sodipodi="http://sodipodi.sourceforge.net/DTD/sodipodi-0.dtd"
   xmlns:inkscape="http://www.inkscape.org/namespaces/inkscape"
   width="250"
   height="330"
   id="svg2"
   version="1.1"
   inkscape:version="0.48.3.1 r9886"
   sodipodi:docname="melanie_lg.svg">
  <defs
     id="defs4" />
  <sodipodi:namedview
     id="base"
     pagecolor="#ffffff"
     bordercolor="#666666"
     borderopacity="1.0"
     inkscape:pageopacity="0.0"
     inkscape:pageshadow="2"
     inkscape:zoom="1.4"
     inkscape:cx="251.2454"
     inkscape:cy="219.11894"
     inkscape:document-units="px"
     inkscape:current-layer="g8407"
     showgrid="false"
     fit-margin-top="0"
     fit-margin-left="0"
     fit-margin-right="0"
     fit-margin-bottom="0"
     inkscape:window-width="1600"
     inkscape:window-height="1138"
     inkscape:window-x="-8"
     inkscape:window-y="-8"
     inkscape:window-maximized="1" />
  <metadata
     id="metadata7">
    <rdf:RDF>
      <cc:Work
         rdf:about="">
        <dc:format>image/svg+xml</dc:format>
        <dc:type
           rdf:resource="http://purl.org/dc/dcmitype/StillImage" />
        <dc:title />
      </cc:Work>
    </rdf:RDF>
  </metadata>
  <g
     inkscape:label="Layer 1"
     inkscape:groupmode="layer"
     id="layer1"
     transform="translate(1476.2188,-189.04952)">
    <g
       id="g8407"
       transform="translate(-1319.9466,2989.4001)">
      <g
         id="g3096"
         transform="matrix(0.37014701,0,0,0.37014701,-160.08337,-1641.6739)">
        <path
           style="fill:#003f3f;fill-opacity:1;stroke:none;display:inline"
           d="m 157.83424,-2815.1192 0,-37.6658 12.91334,-1.8801 12.91333,-1.8802 39.18356,10.5294 39.18357,10.5293 0.001,14.3579 10e-4,14.3579 -50.66301,14.2706 c -27.86409,7.8488 -51.30856,14.4451 -52.09825,14.6586 -1.35222,0.3655 -1.43581,-1.8046 -1.43581,-37.2776 z"
           id="path11593"
           inkscape:connector-curvature="0" />
        <path
           style="fill:#046664;fill-opacity:1;stroke:none;display:inline"
           d="m 408.0749,-2698.9906 0,-74.3543 47.0519,-23.8919 c 25.87855,-13.1405 47.29257,-23.8919 47.58675,-23.8919 0.29416,0 0.53485,22.7994 0.53485,50.6654 l 0,50.6654 -47.58675,47.5808 -47.58675,47.5808 0,-74.3543 z"
           id="path11597"
           inkscape:connector-curvature="0" />
        <path
           sodipodi:nodetypes="cccsccc"
           style="fill:#003f3f;fill-opacity:1;stroke:none;display:inline"
           d="m 157.83424,-2959.2835 0,-39.4134 0,-41.0544 2.00976,0.5044 c 1.10535,0.2775 10.21951,2.5794 10.21951,2.5794 0,0 0.23522,49.0372 0.0604,78.3186 -4.45778,-0.3386 -8.17838,-0.1427 -12.28966,-0.9346 z"
           id="path11599"
           inkscape:connector-curvature="0" />
        <path
           sodipodi:nodetypes="cssscccc"
           inkscape:connector-curvature="0"
           id="path3143"
           d="m 410.21346,-2961.3171 0,-68.0974 c 0,-44.6734 0.22795,-81.2245 0.50657,-81.2245 0.27862,0 21.32013,12.0914 46.75893,26.8697 l 46.25234,26.8698 0.008,55.9957 0.008,46.1502 c -93.06569,-7.3567 -0.40882,-0.6902 -93.53261,-6.5635 z"
           style="fill:#046664;fill-opacity:1;stroke:none;display:inline" />
        <path
           inkscape:connector-curvature="0"
           id="path3147"
           d="m 523.43709,-2894.9667 0,-45.2099 5.12789,0.4793 c 2.82033,0.2636 20.17308,0.9232 38.56166,1.4657 l 33.4338,0.9865 0,26.8223 0,26.8223 -34.25425,15.021 c -18.83984,8.2616 -36.1926,15.8764 -38.56168,16.9219 l -4.30742,1.9009 0,-45.21 z"
           style="fill:#046664;fill-opacity:1;stroke:none;display:inline" />
        <path
           inkscape:connector-curvature="0"
           id="path3149"
           d="m 505.58561,-3003.2092 0.21157,-49.4837 5.33299,-1.3451 c 2.93315,-0.7398 6.53292,-1.5848 7.9995,-1.8777 l 2.6665,-0.5326 0,50.8474 0,50.8473 -5.64067,0 c -3.10237,0 -6.79735,0.2313 -8.21106,0.5141 l -2.57038,0.514 0.21155,-49.4837 0,0 z"
           style="fill:#003f3f;fill-opacity:1;stroke:none;display:inline" />
        <path
           inkscape:connector-curvature="0"
           id="path3151"
           d="m 512.56598,-2849.9345 -4.71765,-0.8082 0,-45.0316 0,-45.0316 6.97392,0 6.97392,0 0,45.9451 0,45.9452 -2.25627,-0.1053 c -1.24095,-0.058 -4.37921,-0.4691 -6.97392,-0.9136 z"
           style="fill:#003f3f;fill-opacity:1;stroke:none;display:inline" />
        <path
           inkscape:connector-curvature="0"
           id="path3153"
           d="m 512.97621,-2740.0408 -7.58926,-2.5619 0,-41.699 c 0,-39.4325 -0.078,-41.6611 -1.43581,-41.0006 -0.88143,0.4288 -4.70042,0.079 -9.89083,-0.9047 l -8.45502,-1.6031 8.04479,-3.5499 c 8.6057,-3.7974 10.37414,-4.0708 17.94475,-2.7741 2.67758,0.4586 6.06826,1.0291 7.53484,1.2678 l 2.6665,0.4341 0,47.5488 c 0,26.152 -0.27691,47.5165 -0.61535,47.4768 -0.33844,-0.04 -4.03051,-1.2251 -8.20461,-2.6342 l 0,0 z"
           style="fill:#003f3f;fill-opacity:1;stroke:none;display:inline" />
        <path
           inkscape:connector-curvature="0"
           id="path3159"
           d="m 124.89808,-2796.9378 -29.741717,-18.4835 0,-27.8884 0,-27.8884 2.25627,0.5089 c 1.24095,0.2798 14.809317,4.5228 30.151947,9.4287 l 27.89568,8.9198 0.21347,36.9919 c 0.11736,20.3455 -0.0673,36.97 -0.41023,36.9432 -0.34305,-0.027 -14.00748,-8.3663 -30.36542,-18.5322 z"
           style="fill:#046664;fill-opacity:1;stroke:none;display:inline" />
        <path
           inkscape:connector-curvature="0"
           id="path3163"
           d="m 264.99183,-2889.2065 0,-52.4199 7.79438,0 7.79438,0 0,50.8679 c 0,40.1361 -0.21637,50.8723 -1.02558,50.8889 -0.56406,0.011 -4.07154,0.71 -7.79438,1.552 l -6.7688,1.531 0,-52.4199 z"
           style="fill:#003f3f;fill-opacity:1;stroke:none;display:inline" />
        <path
           inkscape:connector-curvature="0"
           id="path3165"
           d="m 236.68591,-2844.8522 c -13.08636,-3.5635 -32.93127,-8.9424 -44.09978,-11.9532 l -20.30643,-5.4741 0,-38.342 0,-38.3421 22.35758,-0.5074 c 12.29666,-0.279 32.78768,-0.7404 45.53559,-1.0253 l 23.17804,-0.5179 0,51.3823 c 0,48.4119 -0.083,51.3786 -1.43581,51.3205 -0.78969,-0.034 -12.14283,-2.9773 -25.22919,-6.5408 z"
           style="fill:#046664;fill-opacity:1;stroke:none;display:inline" />
        <path
           sodipodi:nodetypes="sscssscscscsss"
           inkscape:connector-curvature="0"
           id="path3169"
           d="m 128.44407,-2863.6158 c -16.92086,-5.4036 -27.21632,-9.0696 -26.25476,-9.3487 0.87004,-0.2525 13.4991,-0.6867 17.786,-0.9648 7.31269,1.9602 -0.44175,-0.458 18.31986,4.7066 12.49741,3.4402 19.62409,5.0281 20.96139,4.6704 1.11442,-0.298 4.13131,-0.8049 6.70421,-1.1263 l 4.67801,-0.5845 0,3.3408 c 0,2.1233 0.37378,3.3425 1.02558,3.3454 0.56407,0 2.50241,0.4342 4.30743,0.9592 l 3.28184,0.9546 -9.02508,1.449 c -4.96378,0.797 -10.1327,1.4578 -11.48645,1.4685 -1.35376,0.011 -14.98787,-3.9809 -30.29803,-8.8702 z"
           style="fill:#003f3f;fill-opacity:1;stroke:none;display:inline" />
        <path
           inkscape:connector-curvature="0"
           id="path3171"
           d="m 95.156363,-2986.2536 0,-29.8592 5.127877,-2.0515 c 9.54454,-3.8183 54.71334,-21.0956 55.15133,-21.0956 0.2392,0 0.43492,17.8837 0.43492,39.7416 l 0,39.7415 -3.48696,0.4294 c -4.01534,0.4945 -49.53779,2.9891 -54.150437,2.9674 l -3.07673,-0.014 0,-29.8592 z"
           style="fill:#046664;fill-opacity:1;stroke:none;display:inline" />
        <path
           sodipodi:nodetypes="ccsccccc"
           inkscape:connector-curvature="0"
           id="path3175"
           d="m 272.78621,-2962.9581 -7.38415,-0.4102 -0.21062,-58.5469 c -0.16808,-46.7285 0.30521,-52.4195 0.20513,-57.4495 7.79021,3.1186 15.59425,7.9466 15.59425,7.9466 l -0.41023,54.4351 -0.41023,54.4351 z"
           style="fill:#003f3f;fill-opacity:1;stroke:none;display:inline" />
        <path
           inkscape:connector-curvature="0"
           id="path3966"
           d="m 172.36175,-3001.8705 0,-42.1942 4.30742,-1.6256 c 4.53722,-1.7123 83.15371,-31.9961 84.91775,-32.711 0.81464,-0.3302 1.02558,11.3792 1.02558,56.9324 l 0,57.3481 -42.86911,2.2459 c -23.578,1.2353 -43.88441,2.2353 -45.12537,2.2223 l -2.25627,-0.024 0,-42.1942 z"
           style="fill:#ffffff;fill-opacity:1;stroke:none;display:inline" />
        <path
           inkscape:connector-curvature="0"
           id="path3968"
           d="m 172.36175,-3001.8705 0,-42.1942 4.30742,-1.6256 c 4.53722,-1.7123 83.15371,-31.9961 84.91775,-32.711 0.81464,-0.3302 1.02558,11.3792 1.02558,56.9324 l 0,57.3481 -42.86911,2.2459 c -23.578,1.2353 -43.88441,2.2353 -45.12537,2.2223 l -2.25627,-0.024 0,-42.1942 z"
           style="fill:#ffffff;fill-opacity:1;stroke:none;display:inline" />
        <path
           inkscape:connector-curvature="0"
           id="path3970"
           d="m 346.29952,-2816.9557 c -31.81338,-8.9428 -59.22703,-16.6688 -60.91923,-17.1689 l -3.07673,-0.9092 0,-52.8035 0,-52.8034 10.05065,-0.4858 c 18.05929,-0.8728 108.7566,-2.3587 110.91462,-1.8171 l 2.1039,0.528 0,70.9533 c 0,39.0243 -0.2769,70.9112 -0.61534,70.8598 -0.33845,-0.052 -26.64448,-7.4103 -58.45787,-16.3532 z"
           style="fill:#ffffff;fill-opacity:1;stroke:none;display:inline" />
        <path
           inkscape:connector-curvature="0"
           id="path3972"
           d="m 346.29952,-2816.9557 c -31.81338,-8.9428 -59.22703,-16.6688 -60.91923,-17.1689 l -3.07673,-0.9092 0,-52.8051 0,-52.8052 9.23018,-0.4784 c 16.28702,-0.8441 109.58054,-2.3619 111.74762,-1.818 l 2.09137,0.5249 0,70.9533 c 0,39.0243 -0.2769,70.9112 -0.61534,70.8598 -0.33845,-0.052 -26.64448,-7.4103 -58.45787,-16.3532 z"
           style="fill:#ffffff;fill-opacity:1;stroke:none;display:inline" />
        <path
           inkscape:connector-curvature="0"
           id="path3974"
           d="m 346.29952,-2816.9557 c -31.81338,-8.9428 -59.22703,-16.6688 -60.91923,-17.1689 l -3.07673,-0.9092 0,-52.8051 0,-52.8052 9.23018,-0.4817 c 16.31285,-0.8514 109.53224,-2.3707 111.72296,-1.8209 l 2.11603,0.5311 0,70.9533 c 0,39.0243 -0.2769,70.9112 -0.61534,70.8598 -0.33845,-0.052 -26.64448,-7.4103 -58.45787,-16.3532 z"
           style="fill:#ffffff;fill-opacity:1;stroke:none;display:inline" />
        <path
           sodipodi:nodetypes="ccccc"
           inkscape:connector-curvature="0"
           id="path3976"
           d="m 282.30356,-2835.0338 0,-105.6103 123.06917,-1.7715 -0.61534,141.8131 z"
           style="fill:#046664;fill-opacity:1;stroke:none;display:inline" />
        <path
           inkscape:connector-curvature="0"
           id="path3978"
           d="m 523.80817,-2786.0088 0.12125,-46.4981 37.55881,-19.2804 c 20.65733,-10.6042 37.73318,-19.2804 37.94632,-19.2804 0.21314,0 0.36765,12.276 0.34336,27.2799 l -0.0441,27.28 -38.02335,38.4986 -38.02336,38.4986 0.12124,-46.4982 z"
           style="fill:#ffffff;fill-opacity:1;stroke:none;display:inline" />
        <path
           inkscape:connector-curvature="0"
           id="path3980"
           d="m 523.97074,-2786.087 0.30497,-46.6431 37.39517,-19.1688 c 20.56734,-10.5429 37.56527,-19.1688 37.77315,-19.1688 0.20789,0 0.35871,12.276 0.33512,27.2799 l -0.0428,27.28 -38.03525,38.5319 -38.03526,38.532 0.30496,-46.6431 0,0 z"
           style="fill:#ffffff;fill-opacity:1;stroke:none;display:inline" />
        <path
           inkscape:connector-curvature="0"
           id="path3982"
           d="m 523.95204,-2786.0607 0.32034,-46.6751 36.74924,-18.8542 c 20.21208,-10.3699 37.21076,-19.0341 37.77483,-19.2538 0.80842,-0.3149 1.01735,5.3955 0.98674,26.9682 l -0.0388,27.3678 -38.05633,38.5611 -38.05632,38.5611 0.32034,-46.6751 0,0 z"
           style="fill:#ffffff;fill-opacity:1;stroke:none;display:inline" />
        <path
           inkscape:connector-curvature="0"
           id="path3984"
           d="m 523.9346,-2786.0615 0.32559,-46.6759 36.74022,-18.8536 c 20.20713,-10.3695 37.20854,-19.0333 37.78092,-19.2529 0.8282,-0.3178 1.03407,5.1889 1.00824,26.9683 l -0.0324,27.3678 -38.07406,38.5611 -38.07406,38.5611 0.32559,-46.6759 z"
           style="fill:#ffffff;fill-opacity:1;stroke:none;display:inline" />
        <path
           inkscape:connector-curvature="0"
           id="path3986"
           d="m 523.8874,-2786.0643 0.32841,-46.6787 36.66047,-18.8117 c 20.16326,-10.3464 37.17467,-19.009 37.80311,-19.2501 0.96281,-0.3695 1.13803,3.8684 1.1134,26.9292 l -0.0292,27.3678 -38.10229,38.5611 -38.10228,38.5611 0.32841,-46.6787 0,0 z"
           style="fill:#ffffff;fill-opacity:1;stroke:none;display:inline" />
        <path
           inkscape:connector-curvature="0"
           id="path3988"
           d="m 523.77704,-2786.0345 0.25258,-46.649 37.28086,-19.1604 c 20.50446,-10.5382 37.55776,-19.1747 37.8962,-19.1921 0.33844,-0.017 0.60655,12.2443 0.59581,27.2482 l -0.0195,27.28 -38.12924,38.5611 -38.12925,38.5611 0.2526,-46.6489 -10e-6,0 z"
           style="fill:#ffffff;fill-opacity:1;stroke:none;display:inline" />
        <path
           sodipodi:nodetypes="scccscssscs"
           inkscape:connector-curvature="0"
           id="path4006"
           d="m 346.12056,-2794.6096 c -33.34432,-10.5658 -60.98214,-19.3344 -61.41737,-19.4859 7.99772,-2.9587 15.84026,-4.6063 24.83153,-7.0608 l 97.12261,27.423 c 0.58905,8e-4 17.98854,-7.4338 38.6655,-16.5218 l 37.59449,-16.5235 8.32695,1.5197 c 4.57981,0.8359 8.50951,1.6795 8.73263,1.8748 0.3698,0.3238 -8.93733,5.1307 -72.6331,37.5134 l -20.59718,10.4716 z"
           style="fill:#003f3f;fill-opacity:1;stroke:none;display:inline" />
        <path
           inkscape:connector-curvature="0"
           id="path4008"
           d="m 512.62466,-2835.502 c -3.35039,-0.5648 -6.22214,-1.0648 -6.38169,-1.1112 -0.15954,-0.047 0.1668,-0.3505 0.7252,-0.6757 0.86,-0.5009 1.01526,-1.4802 1.01526,-6.4031 0,-5.2572 0.0969,-5.7844 1.01528,-5.5257 0.55839,0.1574 2.97329,0.5833 5.36642,0.9465 2.39313,0.3632 5.11991,0.9089 6.05949,1.2126 1.52911,0.4942 5.03987,-0.91 33.4598,-13.3832 l 31.75144,-13.9353 5.85888,0.6662 c 3.2224,0.3665 5.78766,0.7262 5.70058,0.7995 -0.087,0.073 -17.01431,8.7815 -37.61607,19.3515 -25.95808,13.3181 -37.9805,19.1977 -39.16038,19.1514 -0.93642,-0.037 -4.44382,-0.5288 -7.79421,-1.0935 z"
           style="fill:#003f3f;fill-opacity:1;stroke:none;display:inline" />
        <path
           sodipodi:nodetypes="cccsccc"
           inkscape:connector-curvature="0"
           id="path3156"
           d="m 157.25432,-2939.1325 7.50291,0 5.86198,0 -0.6406,35.3888 c -0.62833,34.711 1.91289,36.1228 -3.25129,36.4205 l -9.473,0.4515 c 0,-24.0869 0,-48.1739 0,-72.2608 z"
           style="fill:#003f3f;fill-opacity:1;stroke:none;display:inline" />
        <path
           sodipodi:nodetypes="cccccscsccc"
           inkscape:connector-curvature="0"
           id="path3158"
           d="m 124.06951,-2875.7235 -27.847367,-7.7267 -0.31146,-26.9537 -0.31146,-26.9536 11.334367,0 c 6.23391,0 19.55807,-0.345 29.60922,-0.7618 l 18.27485,-0.758 0,35.5705 c 0,27.7514 -0.0147,35.6473 -0.0147,35.6473 0,0 -15.41751,-3.8105 -30.73357,-8.0602 z"
           style="fill:#046664;fill-opacity:1;stroke:none;display:inline" />
        <path
           inkscape:connector-curvature="0"
           id="path3164"
           d="m 564.98628,-2951.3573 c -19.14507,-1.8047 -36.24509,-3.3091 -38.00006,-3.343 l -3.19085,-0.062 0,-49.9892 c 0,-27.494 0.42923,-49.8151 0.95386,-49.6024 0.52461,0.2127 17.73986,10.8294 38.25612,23.5926 l 37.30228,23.2058 0.0341,29.8775 c 0.0187,16.4326 -0.0966,29.8154 -0.25606,29.7396 -0.15955,-0.076 -15.95423,-1.6145 -35.09931,-3.4192 z"
           style="fill:#046664;fill-opacity:1;stroke:#64a3a3;stroke-width:1;stroke-miterlimit:4;stroke-opacity:1;stroke-dasharray:none;stroke-dashoffset:0;display:inline" />
        <path
           sodipodi:nodetypes="cccccccccccccc"
           id="path5821"
           d="m 373.5109,-2809.2047 -15.59158,-3.6769 -23.26152,-106.6495 -20.62375,93.6028 -11.78416,-3.3134 -19.84729,-112.222 10.81396,-0.1557 15.20114,92.8841 19.88264,-93.7426 13.27513,-0.1911 23.76781,106.7875 21.87722,-106.8107 18.25127,-0.2627 -31.96087,134.4573"
           inkscape:connector-curvature="0"
           style="font-size:177.05158997px;font-style:normal;font-variant:normal;font-weight:normal;font-stretch:normal;line-height:125%;letter-spacing:0px;word-spacing:0px;fill:#ffffff;fill-opacity:1;stroke:none;display:inline;font-family:FreeSans;-inkscape-font-specification:FreeSans" />
        <path
           inkscape:connector-curvature="0"
           id="path7206"
           style="font-size:252.62004089px;font-style:normal;font-variant:normal;font-weight:normal;font-stretch:normal;line-height:125%;letter-spacing:0px;word-spacing:0px;fill:#046664;fill-opacity:1;stroke:none;display:inline;font-family:FreeSans;-inkscape-font-specification:FreeSans"
           d="m 575.27483,-2851.2097 c 0,0 0.76163,58.2355 0.76163,58.2355 0,0 -11.49352,11.5702 -11.49352,11.5702 0,0 -0.64936,-63.4794 -0.64936,-63.4794 0,0 -41.1626,22.8802 -41.1626,22.8802 0,0 0,-10.2441 0,-10.2441 0,0 74.75128,-37.3757 74.75128,-37.3757 0,0 0.11228,6.0069 0.11228,6.0069 0,0 -22.31971,12.4064 -22.31971,12.4064" />
        <path
           id="path3800"
           style="font-size:149.38162231px;font-style:normal;font-variant:normal;font-weight:normal;font-stretch:normal;line-height:125%;letter-spacing:0px;word-spacing:0px;fill:#006666;fill-opacity:1;stroke:none;font-family:Droid Sans;-inkscape-font-specification:Droid Sans"
           d="m 257.97844,-2995.2648 c -1.2e-4,4.3214 -1.43972,8.3693 -4.27791,12.0901 -2.70635,3.6 -6.52089,6.7401 -11.35663,9.4011 -4.67756,2.5739 -10.1752,4.6176 -16.38926,6.1406 -5.94006,1.4169 -12.3169,2.2968 -19.04954,2.6709 -6.17219,0.3429 -11.68508,0.3317 -16.60706,-0.01 -4.6753,-0.2971 -8.45386,-0.9116 -11.41506,-1.8338 0,0 0,-8.7725 0,-8.7725 1.53915,0.3595 3.30796,0.7021 5.31688,1.0282 2.093,0.2932 4.32272,0.5307 6.69605,0.7113 2.42237,0.1843 4.97351,0.2944 7.66016,0.328 2.74762,0 5.53054,-0.1292 8.34903,-0.3864 9.46683,-0.864 16.92074,-2.7293 21.95243,-5.6255 5.2948,-3.0153 8.02025,-6.8875 8.02033,-11.5277 -8e-5,-2.2372 -0.53521,-4.1001 -1.59926,-5.5802 -0.98599,-1.4806 -2.76395,-2.6679 -5.30353,-3.5574 -2.4266,-0.9255 -5.62836,-1.6202 -9.54937,-2.0858 -3.80791,-0.4905 -8.46037,-0.8674 -13.8622,-1.1326 -4.95976,-0.2285 -9.12099,-0.6882 -12.55484,-1.3706 -3.28746,-0.7094 -5.9501,-1.6982 -8.0274,-2.9639 -1.99332,-1.255 -3.46571,-2.8499 -4.43674,-4.7885 -0.91708,-1.9348 -1.37281,-4.2842 -1.3728,-7.0602 -1e-5,-2.908 0.73006,-5.7439 2.20461,-8.5351 1.49405,-2.828 3.62886,-5.5454 6.44031,-8.1714 2.88119,-2.7258 6.40338,-5.3314 10.6216,-7.8303 4.42563,-2.6102 9.47825,-5.0319 15.22567,-7.2671 7.41887,-2.885 14.46363,-5.1614 21.03937,-6.7586 6.90083,-1.7183 13.33228,-2.9337 19.20706,-3.6012 0,0 -7.92257,12.985 -7.92257,12.985 -4.90378,0.4266 -10.28859,1.2268 -16.0915,2.3746 -5.50171,1.0385 -10.97636,2.5314 -16.41403,4.4482 -7.17746,2.5302 -12.46816,5.4291 -16.08588,8.7264 -3.51264,3.1663 -5.23094,6.3936 -5.23092,9.7504 -2e-5,1.9933 0.38252,3.6131 1.15134,4.8655 0.77378,1.2255 2.07471,2.1928 3.92009,2.9041 1.87394,0.6864 4.38155,1.1732 7.56143,1.4577 3.32111,0.2402 7.5092,0.3724 12.64722,0.3922 5.80337,0.032 11.08814,0.2856 15.77701,0.771 4.9253,0.4867 9.16531,1.386 12.65018,2.7086 3.57042,1.3553 6.3065,3.2487 8.15916,5.6776 1.95781,2.4456 2.94645,5.5961 2.94657,9.4274"
           inkscape:connector-curvature="0" />
      </g>
      <text
         xml:space="preserve"
         style="font-size:29.19011497px;font-style:normal;font-variant:normal;font-weight:normal;font-stretch:normal;line-height:125%;letter-spacing:0px;word-spacing:0px;fill:#000000;fill-opacity:1;stroke:none;font-family:Droid Sans;-inkscape-font-specification:Droid Sans"
         x="-153.44009"
         y="-2582.2231"
         id="text3093"
         sodipodi:linespacing="125%"><tspan
           style="font-size:21.96731186px;font-style:normal;font-variant:normal;font-weight:normal;font-stretch:normal;font-family:Tahoma;-inkscape-font-specification:Tahoma"
           sodipodi:role="line"
           x="-153.44009"
           y="-2582.2231"
           id="tspan3072">Melanie - Multi-level </tspan><tspan
           style="font-size:21.96731186px;font-style:normal;font-variant:normal;font-weight:normal;font-stretch:normal;font-family:Tahoma;-inkscape-font-specification:Tahoma"
           sodipodi:role="line"
           x="-153.44009"
           y="-2554.7639"
           id="tspan3097">Modeling and Ontology</tspan><tspan
           style="font-size:21.96731186px;font-style:normal;font-variant:normal;font-weight:normal;font-stretch:normal;font-family:Tahoma;-inkscape-font-specification:Tahoma"
           sodipodi:role="line"
           x="-153.44009"
           y="-2527.3049"
           id="tspan3080">Engineering Environment</tspan></text>
      <text
         xml:space="preserve"
         style="font-size:8.52930927px;font-style:normal;font-weight:normal;line-height:125%;letter-spacing:0px;word-spacing:0px;fill:#000000;fill-opacity:1;stroke:none;font-family:Sans"
         x="-152.48512"
         y="-2511.0269"
         id="text3090"
         sodipodi:linespacing="125%"><tspan
           sodipodi:role="line"
           id="tspan3092"
           x="-152.48512"
           y="-2511.0269"
           style="font-size:10.23517132px;font-style:normal;font-variant:normal;font-weight:normal;font-stretch:normal;font-family:Tahoma;-inkscape-font-specification:Tahoma">by </tspan><tspan
           sodipodi:role="line"
           x="-152.48512"
           y="-2498.2329"
           style="font-size:10.23517132px;font-style:normal;font-variant:normal;font-weight:normal;font-stretch:normal;font-family:Tahoma;-inkscape-font-specification:Tahoma"
           id="tspan3048">University of Mannheim: Software Engineering Group</tspan><tspan
           sodipodi:role="line"
           x="-152.48512"
           y="-2485.439"
           id="tspan3094"
           style="font-size:10.23517132px;font-style:normal;font-variant:normal;font-weight:normal;font-stretch:normal;font-family:Tahoma;-inkscape-font-specification:Tahoma">http://swt.informatik.uni-mannheim.de</tspan></text>
    </g>
  </g>
</svg>
